<?xml version="1.0" encoding="UTF-8"?>
<svg width="369px" height="145px" viewBox="0 0 369 145" version="1.1" xmlns="http://www.w3.org/2000/svg" xmlns:xlink="http://www.w3.org/1999/xlink">
    <!-- Generator: Sketch 40.3 (33839) - http://www.bohemiancoding.com/sketch -->
    <title>GET</title>
    <desc>Created with Sketch.</desc>
    <defs></defs>
    <g id="Page-1" stroke="none" stroke-width="1" fill="none" fill-rule="evenodd">
        <g id="Wanderlift-Landing-Reboot" transform="translate(-227.000000, -122.000000)" fill="#FFFFFF">
            <g id="Jumbotron">
                <path d="M227.6,195.2 C227.6,243 264,266.8 299.6,266.8 C325.6,266.8 352,255.6 362.2,226.2 C366.8,212.6 367,199.2 366,185.6 L300,185.6 L300,216.4 L329.8,216.4 C323.2,229.8 314,233.4 299.6,233.4 C278.2,233.4 264.6,218.4 264.6,195 C264.6,173.8 277,155.6 299.6,155.6 C313.2,155.6 322,159.8 328.2,171 L363.8,171 C356.4,137 327.4,122.8 299.6,122.8 C264,122.8 227.6,147.2 227.6,195.2 L227.6,195.2 Z M475.6,125 L388.2,125 L388.2,265 L477.4,265 L477.4,231.6 L424.8,231.6 L424.8,208.8 L471.6,208.8 L471.6,176.8 L424.8,176.8 L424.8,156.8 L475.6,156.8 L475.6,125 Z M525.8,157 L525.8,265 L561.2,265 L561.2,157 L595.4,157 L595.4,125 L491.4,125 L491.4,157 L525.8,157 Z" id="GET"></path>
            </g>
        </g>
    </g>
</svg>