<?xml version="1.0" encoding="UTF-8" standalone="no"?>
<svg width="1440px" height="168px" viewBox="0 0 1440 168" version="1.1" xmlns="http://www.w3.org/2000/svg" xmlns:xlink="http://www.w3.org/1999/xlink">
    <!-- Generator: Sketch 41.2 (35397) - http://www.bohemiancoding.com/sketch -->
    <title>Rectangle 47</title>
    <desc>Created with Sketch.</desc>
    <defs>
        <linearGradient x1="50%" y1="0%" x2="50%" y2="100%" id="linearGradient-1">
            <stop stop-color="#F1F1F1" offset="0%"></stop>
            <stop stop-color="#FFFFFF" offset="100%"></stop>
        </linearGradient>
    </defs>
    <g id="Page-1" stroke="none" stroke-width="1" fill="none" fill-rule="evenodd">
        <g id="Wanderlift-Landing-Reboot" transform="translate(0.000000, -3057.000000)" fill="url(#linearGradient-1)">
            <path d="M0,3117.41012 L15.1143396,3107.75378 L31.4370755,3091.08689 L49.8782961,3104.10177 L63.8542167,3098.28689 L84.48529,3104.10177 C84.48529,3104.10177 107.601567,3099.93459 114.433128,3098.28689 C123.962869,3095.98841 143.742645,3070.58368 143.742645,3070.58368 L187.74838,3057 L246.038778,3091.08689 L262.955048,3122.29861 L292.110611,3139.51423 L326.086572,3091.08689 C326.086572,3091.08689 336.82246,3090.33731 341.914631,3085.82597 C344.536789,3083.5029 349.22956,3070.58367 349.22956,3070.58367 L373.49491,3085.82597 L431.184334,3107.75378 L440.986349,3122.29861 L475.372288,3139.51423 L502.761175,3104.10177 L520.927967,3104.10177 L546.249028,3085.82597 L590.684881,3107.75378 L659.396506,3149.61906 L689.467569,3107.75378 L707.673072,3091.08689 L720,3098.28689 L744.622868,3104.10177 L754.91747,3122.29861 L769.618003,3122.2986 L797.850249,3107.75378 L831.685488,3107.75378 L887.07175,3085.82597 L942.814878,3107.75378 L993.271169,3070.58368 L1022.44946,3098.28689 L1038.86691,3091.08689 L1061.86792,3122.2986 C1061.86792,3122.2986 1077.34581,3107.75378 1084.65397,3107.75378 C1113.18972,3107.75378 1169.39964,3122.2986 1169.39964,3122.2986 L1188.89141,3107.75378 L1211.57743,3130.1443 L1223.01084,3122.2986 L1233.0208,3098.28689 L1244.47108,3091.08689 L1259.40435,3104.10177 L1284.36347,3107.75378 L1307.73906,3122.2986 L1339.77095,3111.40621 L1364.15034,3079.55145 L1397.845,3091.08689 L1415.36784,3114.67978 L1440,3122.2986 L1440,3224.3384 L0,3224.3384 L0,3117.41012 Z" id="Rectangle-47" transform="translate(720.000000, 3140.669198) scale(1, -1) translate(-720.000000, -3140.669198) "></path>
        </g>
    </g>
</svg>