<?xml version="1.0" encoding="UTF-8"?>
<svg width="401px" height="146px" viewBox="0 0 401 146" version="1.1" xmlns="http://www.w3.org/2000/svg" xmlns:xlink="http://www.w3.org/1999/xlink">
    <!-- Generator: Sketch 40.3 (33839) - http://www.bohemiancoding.com/sketch -->
    <title>OUT</title>
    <desc>Created with Sketch.</desc>
    <defs></defs>
    <g id="Page-1" stroke="none" stroke-width="1" fill="none" fill-rule="evenodd">
        <g id="Wanderlift-Landing-Reboot" transform="translate(-492.000000, -282.000000)" fill="#FFFFFF">
            <g id="Jumbotron">
                <path d="M636.2,355 C636.2,306.6 600.6,282.8 564.8,282.8 C528.4,282.8 492.6,306.6 492.6,355 C492.6,403.6 527.2,427.2 564.2,427.2 C606.6,427.2 636.2,397.8 636.2,355 L636.2,355 Z M529.2,355 C529.2,329.4 546.6,317.6 564.8,317.6 C582.2,317.6 599.6,330 599.6,355 C599.6,380 581.8,392.6 564.4,392.6 C546.4,392.6 529.2,380 529.2,355 L529.2,355 Z M714.6,426.8 C744,426.8 771.2,410.2 771.2,378.8 L771.2,285 L735,285 L735,378 C735,389.6 724.6,394.6 714.8,394.6 C704.4,394.6 694.2,389.6 694.2,378 L694.2,285 L657.6,285 L657.6,378.8 C657.6,410.2 685,426.8 714.6,426.8 L714.6,426.8 Z M823.2,317 L823.2,425 L858.6,425 L858.6,317 L892.8,317 L892.8,285 L788.8,285 L788.8,317 L823.2,317 Z" id="OUT"></path>
            </g>
        </g>
    </g>
</svg>