<?xml version="1.0" encoding="UTF-8"?>
<svg width="613px" height="141px" viewBox="0 0 613 141" version="1.1" xmlns="http://www.w3.org/2000/svg" xmlns:xlink="http://www.w3.org/1999/xlink">
    <!-- Generator: Sketch 40.3 (33839) - http://www.bohemiancoding.com/sketch -->
    <title>THERE</title>
    <desc>Created with Sketch.</desc>
    <defs></defs>
    <g id="Page-1" stroke="none" stroke-width="1" fill="none" fill-rule="evenodd">
        <g id="Wanderlift-Landing-Reboot" transform="translate(-603.000000, -459.000000)" fill="#FFFFFF">
            <g id="Jumbotron">
                <path d="M638.2,492 L638.2,600 L673.6,600 L673.6,492 L707.8,492 L707.8,460 L603.8,460 L603.8,492 L638.2,492 Z M843.2,600 L843.2,460 L806.6,460 L806.6,510.6 L763.2,510.6 L763.2,460 L726.6,460 L726.6,600 L763.2,600 L763.2,544 L806.6,544 L806.6,600 L843.2,600 Z M960.6,460 L873.2,460 L873.2,600 L962.4,600 L962.4,566.6 L909.8,566.6 L909.8,543.8 L956.6,543.8 L956.6,511.8 L909.8,511.8 L909.8,491.8 L960.6,491.8 L960.6,460 Z M1079,550.2 C1092.8,540.8 1099.6,525.4 1099.8,509.4 C1099.8,484.8 1083.2,459.8 1049.4,459.8 C1028.8,459.6 1008.6,459.8 987.8,459.8 L987.8,599.8 L1024.4,599.8 L1024.4,556 L1043.6,556 L1067.6,599.8 L1106.4,599.8 L1106.4,594.6 L1079,550.2 Z M1023.8,526.2 L1023.8,491.6 L1049.2,491.6 C1059.6,491.6 1064.4,499.8 1064.4,508.6 C1064.4,517.4 1059.4,526.2 1049.2,526.2 L1023.8,526.2 Z M1214.2,460 L1126.8,460 L1126.8,600 L1216,600 L1216,566.6 L1163.4,566.6 L1163.4,543.8 L1210.2,543.8 L1210.2,511.8 L1163.4,511.8 L1163.4,491.8 L1214.2,491.8 L1214.2,460 Z" id="THERE"></path>
            </g>
        </g>
    </g>
</svg>