<?xml version="1.0" encoding="UTF-8"?>
<svg width="665px" height="112px" viewBox="0 0 665 112" version="1.1" xmlns="http://www.w3.org/2000/svg" xmlns:xlink="http://www.w3.org/1999/xlink">
    <!-- Generator: Sketch 41.2 (35397) - http://www.bohemiancoding.com/sketch -->
    <title>Combined Shape Copy 2</title>
    <desc>Created with Sketch.</desc>
    <defs></defs>
    <g id="Page-1" stroke="none" stroke-width="1" fill="none" fill-rule="evenodd">
        <g id="Wanderlift_Logo" transform="translate(-1.000000, -186.000000)" fill="#FFFFFF">
            <path d="M171.194619,297.385971 L187.977575,297.385971 L187.977575,294.582098 L157.672352,220.926504 L150.287851,220.926504 L120.078529,294.582098 L120.078529,297.385971 L136.861486,297.385971 L140.793493,287.895939 L167.262612,287.895939 L171.194619,297.385971 Z M161.604358,271.288381 L146.451746,271.288381 L153.93215,251.445586 L161.604358,271.288381 Z M248.396218,297.493813 L254.533985,297.493813 L254.533985,221.897075 L236.983808,221.897075 L236.983808,258.886634 L203.034285,221.573551 L196.800615,221.573551 L196.800615,297.385971 L214.542598,297.385971 L214.542598,260.288571 L248.396218,297.493813 Z M296.922938,221.897075 L271.604649,221.897075 L271.604649,297.385971 L296.922938,297.385971 C340.654527,297.170289 340.654527,222.112758 296.922938,221.897075 Z M288.771216,239.475204 L296.922938,239.475204 C318.309219,239.475204 318.309219,279.807843 296.922938,279.807843 L288.771216,279.807843 L288.771216,239.475204 Z M384.673823,221.897075 L342.764384,221.897075 L342.764384,297.385971 L385.536947,297.385971 L385.536947,280.239208 L359.835048,280.239208 L359.835048,266.97473 L382.659869,266.97473 L382.659869,249.827967 L359.835048,249.827967 L359.835048,239.15168 L384.673823,239.15168 L384.673823,221.897075 Z M443.845732,270.641334 C460.820494,257.70038 456.025363,222.004917 429.652146,221.897075 L400.210046,221.897075 L400.210046,297.385971 L417.376613,297.385971 L417.376613,275.170668 L426.295555,275.170668 L437.803868,297.385971 L456.984389,297.385971 L456.984389,294.582098 L443.845732,270.641334 Z M429.652146,257.808221 L417.376613,257.808221 L417.376613,239.15168 C421.404522,239.15168 425.624237,239.043839 429.652146,239.15168 C439.434212,239.259521 438.954699,257.808221 429.652146,257.808221 Z M484.508438,221.897075 L467.245968,221.897075 L467.245968,297.385971 L508.8677,297.385971 L508.8677,280.023525 L484.508438,280.023525 L484.508438,221.897075 Z M544.811442,280.45489 L544.811442,238.720315 L552.663468,238.720315 L552.663468,221.897075 L519.966673,221.897075 L519.966673,238.720315 L527.830687,238.720315 L527.830687,280.45489 L519.295355,280.45489 L519.295355,297.385971 L553.337783,297.385971 L553.337783,280.45489 L544.811442,280.45489 Z M603.596744,272.906001 L603.596744,255.651396 L582.018657,255.651396 L582.018657,239.15168 L606.368928,239.15168 L606.368928,221.897075 L564.561386,221.897075 L564.561386,297.385971 L582.018657,297.385971 L582.018657,272.906001 L603.596744,272.906001 Z M632.082392,239.15168 L632.082392,297.385971 L649.06015,297.385971 L649.06015,239.15168 L665.453502,239.15168 L665.453502,221.897075 L615.584146,221.897075 L615.584146,239.15168 L632.082392,239.15168 Z M45.7447835,297.494055 L38.045789,297.494055 L1,190.258 L1,186 L26.3926416,186 L44.6235337,246.399412 L61.8252189,187.734677 L72.9989557,187.734677 L90.4947352,246.399412 L108.57858,186 L133.529834,186 L133.529834,190.258 L96.9254327,297.494055 L89.1236898,297.494055 L74.7604451,256.574598 L64.3867923,284.118843 L58.1398115,269.981214 L46.8197658,297.434944 L45.7447835,297.494055 Z" id="Combined-Shape-Copy-2"></path>
        </g>
    </g>
</svg>