<svg id="Layer_1" data-name="Layer 1" xmlns="http://www.w3.org/2000/svg" viewBox="0 0 170 28.53"><defs><style>.cls-1{fill:#9b9b9b;}</style></defs><title>Logo</title><g id="Page-1"><g id="Wanderlift_Logo" data-name="Wanderlift Logo"><g id="Group"><path id="Shape" class="cls-1" d="M291.31,70.8h4.29v-.72l-7.75-18.84H286l-7.73,18.84v.72h4.29l1-2.43h6.77Zm-2.45-6.68H285l1.91-5.08Z" transform="translate(-247.77 -42.31)"/><path id="Shape-2" data-name="Shape" class="cls-1" d="M311.07,70.83h1.57V51.49h-4.49V61l-8.69-9.55h-1.59V70.8h4.54V61.31Z" transform="translate(-247.77 -42.31)"/><path id="Shape-3" data-name="Shape" class="cls-1" d="M323.48,51.49H317V70.8h6.48C334.67,70.75,334.67,51.55,323.48,51.49ZM321.4,56h2.09c5.47,0,5.47,10.32,0,10.32H321.4Z" transform="translate(-247.77 -42.31)"/><path id="Shape-4" data-name="Shape" class="cls-1" d="M345.93,51.49H335.21V70.8h10.94V66.42h-6.58V63h5.84V58.64h-5.84V55.91h6.35Z" transform="translate(-247.77 -42.31)"/><path id="Shape-5" data-name="Shape" class="cls-1" d="M361.07,64c4.34-3.31,3.12-12.44-3.63-12.47h-7.53V70.8h4.39V65.12h2.28l2.94,5.68h4.91v-.72Zm-3.63-3.28H354.3V55.91c1,0,2.11,0,3.14,0C359.94,55.93,359.82,60.68,357.44,60.68Z" transform="translate(-247.77 -42.31)"/><path id="Shape-6" data-name="Shape" class="cls-1" d="M371.48,51.49h-4.42V70.8h10.65V66.36h-6.23Z" transform="translate(-247.77 -42.31)"/><path id="Shape-7" data-name="Shape" class="cls-1" d="M386.9,66.47V55.79h2v-4.3h-8.37v4.3h2V66.47h-2.18V70.8h8.71V66.47Z" transform="translate(-247.77 -42.31)"/><path id="Shape-8" data-name="Shape" class="cls-1" d="M401.94,64.54V60.13h-5.52V55.91h6.23V51.49H392V70.8h4.47V64.54Z" transform="translate(-247.77 -42.31)"/><path id="Shape-9" data-name="Shape" class="cls-1" d="M409.23,55.91V70.8h4.34V55.91h4.19V51.49H405v4.41Z" transform="translate(-247.77 -42.31)"/><polygon id="Shape-10" data-name="Shape" class="cls-1" points="11.45 28.53 9.48 28.53 0 1.09 0 0 6.5 0 11.16 15.45 15.56 0.44 18.42 0.44 22.9 15.45 27.52 0 33.91 0 33.91 1.09 24.54 28.53 22.55 28.53 18.87 18.06 16.22 25.1 14.62 21.49 11.72 28.51 11.45 28.53"/></g></g></g></svg>