<?xml version="1.0" encoding="UTF-8"?>
<svg width="665px" height="113px" viewBox="0 0 665 113" version="1.1" xmlns="http://www.w3.org/2000/svg" xmlns:xlink="http://www.w3.org/1999/xlink">
    <!-- Generator: Sketch 41.2 (35397) - http://www.bohemiancoding.com/sketch -->
    <title>Wanderlift_Logo</title>
    <desc>Created with Sketch.</desc>
    <defs></defs>
    <g id="Page-1" stroke="none" stroke-width="1" fill="none" fill-rule="evenodd">
        <g id="Wanderlift_Logo" fill="#9B9B9B">
            <g id="Group">
                <path d="M170.738418,112.208258 L187.521374,112.208258 L187.521374,109.404384 L157.21615,35.7487901 L149.831649,35.7487901 L119.622328,109.404384 L119.622328,112.208258 L136.405284,112.208258 L140.337291,102.718225 L166.806411,102.718225 L170.738418,112.208258 Z M161.148157,86.1106679 L145.995545,86.1106679 L153.475948,66.2678724 L161.148157,86.1106679 Z" id="Shape" transform="translate(153.571851, 73.978524) rotate(-0.000000) translate(-153.571851, -73.978524) "></path>
                <path d="M247.940017,112.316099 L254.077783,112.316099 L254.077783,36.7193616 L236.527606,36.7193616 L236.527606,73.7089207 L202.578083,36.3958378 L196.344414,36.3958378 L196.344414,112.208258 L214.086396,112.208258 L214.086396,75.1108573 L247.940017,112.316099 Z" id="Shape" transform="translate(225.211099, 74.355968) rotate(-0.000000) translate(-225.211099, -74.355968) "></path>
                <path d="M296.466736,36.7193616 L271.148448,36.7193616 L271.148448,112.208258 L296.466736,112.208258 C340.198325,111.992575 340.198325,36.9350442 296.466736,36.7193616 Z M288.315014,54.2974903 L296.466736,54.2974903 C317.853017,54.2974903 317.853017,94.630129 296.466736,94.630129 L288.315014,94.630129 L288.315014,54.2974903 Z" id="Shape" transform="translate(300.206938, 74.463810) rotate(-0.000000) translate(-300.206938, -74.463810) "></path>
                <path d="M384.217622,36.7193616 L342.308182,36.7193616 L342.308182,112.208258 L385.080745,112.208258 L385.080745,95.0614941 L359.378846,95.0614941 L359.378846,81.7970167 L382.203667,81.7970167 L382.203667,64.6502532 L359.378846,64.6502532 L359.378846,53.9739664 L384.217622,53.9739664 L384.217622,36.7193616 Z" id="Shape" transform="translate(363.694464, 74.463810) rotate(-0.000000) translate(-363.694464, -74.463810) "></path>
                <path d="M443.389531,85.4636202 C460.364292,72.5226666 455.569162,36.8272029 429.195945,36.7193616 L399.753844,36.7193616 L399.753844,112.208258 L416.920411,112.208258 L416.920411,89.992954 L425.839353,89.992954 L437.347666,112.208258 L456.528188,112.208258 L456.528188,109.404384 L443.389531,85.4636202 Z M429.195945,72.6305079 L416.920411,72.6305079 L416.920411,53.9739664 C420.94832,53.9739664 425.168035,53.8661252 429.195945,53.9739664 C438.978011,54.0818077 438.498498,72.6305079 429.195945,72.6305079 Z" id="Shape" transform="translate(428.141016, 74.463810) rotate(-0.000000) translate(-428.141016, -74.463810) "></path>
                <path d="M484.052236,36.7193616 L466.789767,36.7193616 L466.789767,112.208258 L508.411498,112.208258 L508.411498,94.8458116 L484.052236,94.8458116 L484.052236,36.7193616 Z" id="Shape" transform="translate(487.600633, 74.463810) rotate(-0.000000) translate(-487.600633, -74.463810) "></path>
                <path d="M544.355241,95.2771767 L544.355241,53.5426013 L552.207267,53.5426013 L552.207267,36.7193616 L519.510471,36.7193616 L519.510471,53.5426013 L527.374485,53.5426013 L527.374485,95.2771767 L518.839153,95.2771767 L518.839153,112.208258 L552.881582,112.208258 L552.881582,95.2771767 L544.355241,95.2771767 Z" id="Shape" transform="translate(535.860367, 74.463810) rotate(-0.000000) translate(-535.860367, -74.463810) "></path>
                <path d="M603.140542,87.7282871 L603.140542,70.4736823 L581.562455,70.4736823 L581.562455,53.9739664 L605.912727,53.9739664 L605.912727,36.7193616 L564.105184,36.7193616 L564.105184,112.208258 L581.562455,112.208258 L581.562455,87.7282871 L603.140542,87.7282871 Z" id="Shape" transform="translate(585.008955, 74.463810) rotate(-0.000000) translate(-585.008955, -74.463810) "></path>
                <path d="M631.62619,53.9739664 L631.62619,112.208258 L648.603948,112.208258 L648.603948,53.9739664 L664.9973,53.9739664 L664.9973,36.7193616 L615.127945,36.7193616 L615.127945,53.9739664 L631.62619,53.9739664 Z" id="Shape" transform="translate(640.062623, 74.463810) rotate(-0.000000) translate(-640.062623, -74.463810) "></path>
                <polygon id="Shape" transform="translate(66.808715, 56.569314) rotate(-0.000000) translate(-66.808715, -56.569314) " points="45.2885818 112.316342 37.5895873 112.316342 0.543798324 5.08028623 0.543798324 0.822286409 25.9364399 0.822286409 44.167332 61.2216987 61.3690172 2.55696322 72.542754 2.55696322 90.0385335 61.2216987 108.122378 0.822286409 133.073633 0.822286409 133.073633 5.08028623 96.469231 112.316342 88.6674881 112.316342 74.3042434 71.3968848 63.9305907 98.941129 57.6836098 84.8035007 46.3635641 112.25723"></polygon>
            </g>
        </g>
    </g>
</svg>